<svg viewBox="0 0 100 100" xmlns="http://www.w3.org/2000/svg" xmlns:xlink="http://www.w3.org/1999/xlink" width="100.000000" height="100.000000" fill="none">
	<rect id="Размер2" width="100.000000" height="100.000000" x="0.000000" y="0.000000" fill="rgb(255,255,255)" fill-opacity="0" />
	<circle id="Эллипс 1" cx="50" cy="50" r="50" fill="rgb(255,0,0)" />
	<circle id="Эллипс 1" cx="50" cy="50" r="49.75" stroke="rgb(0,0,0)" stroke-width="0.500000" />
	<path id="Прямоугольник 1" d="M25.8182 26.1719L25.8182 0.2C25.8182 0.0895431 25.9077 5.10073e-08 26.0182 5.10073e-08L44.4281 0C44.5386 0 44.6281 0.0895431 44.6281 0.2L44.6281 26.1719C44.6281 26.2823 44.7176 26.3719 44.8281 26.3719L70.8 26.3719C70.9104 26.3719 71 26.4614 71 26.5719L71 44.4281C71 44.5385 70.9105 44.6281 70.8 44.6281L44.8281 44.6281C44.7176 44.6281 44.6281 44.7176 44.6281 44.8281L44.6281 70.8C44.6281 70.9105 44.5385 71 44.4281 71L26.5677 71C26.4589 71 26.3742 70.913 26.3719 70.8042L25.8182 44.8239C25.8159 44.7151 25.7312 44.6281 25.6224 44.6281L0.2 44.6281C0.089543 44.6281 0 44.5385 0 44.4281L7.65109e-08 26.5719C7.65109e-08 26.4614 0.0895431 26.3719 0.2 26.3719L25.6182 26.3719C25.7286 26.3719 25.8182 26.2823 25.8182 26.1719Z" fill="rgb(255,255,255)" fill-rule="evenodd" transform="matrix(0.70358,-0.710616,0.70358,0.710616,0,50)" />
	<path id="Прямоугольник 1" d="M25.8182 0.2L25.8182 26.1719C25.8182 26.2823 25.7286 26.3719 25.6182 26.3719L0.2 26.3719C0.0895431 26.3719 0 26.4614 0 26.5719L0 44.4281C0 44.5385 0.089543 44.6281 0.2 44.6281L25.6224 44.6281C25.7312 44.6281 25.8159 44.7151 25.8182 44.8239L26.3719 70.8042C26.3742 70.913 26.4589 71 26.5677 71L44.4281 71C44.5385 71 44.6281 70.9105 44.6281 70.8L44.6281 44.8281C44.6281 44.7176 44.7176 44.6281 44.8281 44.6281L70.8 44.6281C70.9105 44.6281 71 44.5385 71 44.4281L71 26.5719C71 26.4614 70.9104 26.3719 70.8 26.3719L44.8281 26.3719C44.7176 26.3719 44.6281 26.2823 44.6281 26.1719L44.6281 0.2C44.6281 0.0895431 44.5386 0 44.4281 0L26.0182 0C25.9077 0 25.8182 0.0895431 25.8182 0.2ZM70.5 26.8719L44.8281 26.8719Q44.6831 26.8719 44.5594 26.8206Q44.4356 26.7694 44.3331 26.6669Q44.2306 26.5643 44.1793 26.4406Q44.1281 26.3169 44.1281 26.1719L44.1281 0.5L26.3182 0.5L26.3182 26.1719Q26.3182 26.3169 26.2669 26.4406Q26.2157 26.5643 26.1132 26.6669Q26.0107 26.7694 25.8869 26.8206Q25.7632 26.8719 25.6182 26.8719L0.5 26.8719L0.5 44.1281L25.6224 44.1281Q25.7684 44.1281 25.8926 44.1803Q26.0145 44.2315 26.1152 44.333Q26.211 44.4296 26.2616 44.5458Q26.315 44.6685 26.3181 44.8132L26.8655 70.5L44.1281 70.5L44.1281 44.8281Q44.1281 44.6831 44.1793 44.5594Q44.2306 44.4356 44.3331 44.3331Q44.4356 44.2306 44.5594 44.1793Q44.6831 44.1281 44.8281 44.1281L70.5 44.1281L70.5 26.8719Z" fill="rgb(0,0,0)" fill-rule="evenodd" transform="matrix(0.70358,-0.710616,0.70358,0.710616,0,50)" />
</svg>
