<svg viewBox="0 0 100 100" xmlns="http://www.w3.org/2000/svg" xmlns:xlink="http://www.w3.org/1999/xlink" width="100.000000" height="100.000000" fill="none">
	<rect id="Размер1" width="100.000000" height="100.000000" x="0.000000" y="0.000000" fill="rgb(130,130,130)" fill-opacity="0" />
	<path id="Эллипс 2" d="M13.3718 76.5961C5.98677 76.5961 0 82.7199 0 90.274C0 97.8281 5.98677 103.952 13.3718 103.952C20.7569 103.952 26.7436 97.8281 26.7436 90.274C26.7436 90.274 24.0667 45.8136 21.2502 23.2451C18.4336 0.676567 15.4774 0 15.4774 0L20.067 80.3322C19.3809 80.2212 14.0884 76.5961 13.3718 76.5961Z" fill="rgb(0,0,0)" fill-opacity="0" fill-rule="evenodd" transform="matrix(0.921128,0.389259,-0.618608,0.7857,66.3054,4.03783)" />
	<path id="Эллипс 2" d="M13.3718 76.5961C14.0884 76.5961 19.3809 80.2212 20.067 80.3322L15.4774 0C15.4774 0 18.4336 0.676567 21.2502 23.2451C24.0667 45.8136 26.7436 90.274 26.7436 90.274C26.7436 97.8281 20.7569 103.952 13.3718 103.952C5.98677 103.952 0 97.8281 0 90.274C0 82.7199 5.98677 76.5961 13.3718 76.5961Z" fill-rule="evenodd" stroke="rgb(255,197,90)" stroke-width="13.000000" transform="matrix(0.921128,0.389259,-0.618608,0.7857,66.3054,4.03783)" />
	<path id="Эллипс 7" d="M13.3718 76.5961C5.98677 76.5961 0 82.7199 0 90.2739C0 97.828 5.98677 103.952 13.3718 103.952C20.7569 103.952 26.7436 97.828 26.7436 90.2739C26.7436 90.2739 24.0667 45.8135 21.2502 23.2451C18.4336 0.676565 15.4774 0 15.4774 0L20.067 80.3322C19.3809 80.2211 14.0884 76.5961 13.3718 76.5961Z" fill="rgb(0,0,0)" fill-opacity="0" fill-rule="evenodd" transform="matrix(-0.921128,0.38926,0.618604,0.785703,34.6344,3.99994)" />
	<path id="Эллипс 7" d="M13.3718 76.5961C14.0884 76.5961 19.3809 80.2211 20.067 80.3322L15.4774 0C15.4774 0 18.4336 0.676565 21.2502 23.2451C24.0667 45.8135 26.7436 90.2739 26.7436 90.2739C26.7436 97.828 20.7569 103.952 13.3718 103.952C5.98677 103.952 0 97.828 0 90.2739C0 82.7199 5.98677 76.5961 13.3718 76.5961Z" fill-rule="evenodd" stroke="rgb(255,197,90)" stroke-width="13.000000" transform="matrix(-0.921128,0.38926,0.618604,0.785703,34.6344,3.99994)" />
	<circle id="Эллипс 6" cx="50" cy="57" r="4" fill="rgb(0,0,0)" />
</svg>
