<svg viewBox="0 0 24 24" xmlns="http://www.w3.org/2000/svg" xmlns:xlink="http://www.w3.org/1999/xlink" width="24.000000" height="24.000000" fill="none">
	<rect id="moon 1" width="24.000000" height="24.000000" x="0.000000" y="0.000000" fill="rgb(255,255,255)" fill-opacity="0" />
	<path id="Форма 1" d="M12.022 22.971C5.944 22.971 1 18.039 1 11.978C1 6.277 5.285 1.573 10.968 1.034C11.411 0.983 11.813 1.237 11.983 1.638C12.154 2.038 12.045 2.504 11.714 2.787C10.62 3.725 10.088 5.347 10.088 7.744C10.088 10.1185 10.5951 11.6146 11.5182 12.5363C12.5886 13.6052 14.2185 13.902 16.267 13.902C18.729 13.902 20.307 13.387 21.235 12.282C21.515 11.946 21.984 11.835 22.386 12.002C22.79 12.171 23.037 12.583 22.995 13.019C22.46 18.692 17.742 22.97 12.022 22.97L12.022 22.971ZM8.78 3.576C5.362 4.872 3 8.15 3 11.977C3 16.936 7.048 20.97 12.022 20.97C15.854 20.97 19.137 18.625 20.443 15.23C19.027 15.809 17.482 15.903 16.266 15.903C12.755 15.903 8.087 15.057 8.087 7.745C8.087 6.092 8.316 4.709 8.779 3.576L8.78 3.576Z" fill="rgb(0,0,0)" fill-rule="nonzero" />
	<path id="Форма 1" d="M3 11.977C3 8.15 5.362 4.872 8.78 3.576L8.779 3.576C8.316 4.709 8.087 6.092 8.087 7.745C8.087 15.057 12.755 15.903 16.266 15.903C17.482 15.903 19.027 15.809 20.443 15.23C19.137 18.625 15.854 20.97 12.022 20.97C7.048 20.97 3 16.936 3 11.977Z" fill="rgb(0,0,0)" fill-rule="evenodd" />
	<path id="Форма 1" d="M3 11.977C3 8.15 5.362 4.872 8.78 3.576L8.779 3.576C8.316 4.709 8.087 6.092 8.087 7.745C8.087 15.057 12.755 15.903 16.266 15.903C17.482 15.903 19.027 15.809 20.443 15.23C19.137 18.625 15.854 20.97 12.022 20.97C7.048 20.97 3 16.936 3 11.977Z" fill="rgb(255,255,255)" fill-rule="evenodd" />
</svg>
