<svg viewBox="0 0 100 100" xmlns="http://www.w3.org/2000/svg" xmlns:xlink="http://www.w3.org/1999/xlink" width="100.000000" height="100.000000" fill="none">
	<rect id="Размер1" width="100.000000" height="100.000000" x="0.000000" y="0.000000" fill="rgb(255,255,255)" fill-opacity="0" />
	<circle id="Эллипс 1" cx="50" cy="50" r="50" fill="rgb(0,79,191)" />
	<path id="" d="M40.2485 61.9609L40.2485 60.6426Q40.2705 55.2153 41.1714 51.9854Q42.0942 48.7554 43.8301 46.7998Q45.5879 44.8223 48.1147 43.2183Q50.1143 41.8999 51.6963 40.6035Q53.3003 39.2852 54.2231 37.7471Q55.168 36.209 55.168 34.2534Q55.168 32.3638 54.2451 30.9355Q53.3442 29.4854 51.8062 28.7163Q50.2681 27.9253 48.4004 27.9253Q46.4888 27.9253 44.8408 28.7822Q43.1929 29.6392 42.1602 31.2432Q41.1274 32.8252 41.0835 35.0664L26.3838 35.0664Q26.4717 28.3428 29.4819 24.0581Q32.5142 19.7734 37.502 17.708Q42.4897 15.6426 48.4883 15.6426Q55.0801 15.6426 60.1997 17.708Q65.3413 19.7515 68.2856 23.7505Q71.23 27.7275 71.23 33.5283Q71.23 37.3296 69.9556 40.23Q68.6812 43.1304 66.396 45.3716Q64.1108 47.5908 61.0566 49.3926Q58.6396 50.8208 57.0356 52.3369Q55.4536 53.853 54.6626 55.8306Q53.8716 57.8081 53.8716 60.6426L53.8716 61.9609L40.2485 61.9609ZM47.3237 82.9229Q43.874 82.9229 41.4131 80.5059Q38.9741 78.0669 38.9961 74.6172Q38.9741 71.2334 41.4131 68.8164Q43.874 66.3994 47.3237 66.3994Q50.5977 66.3994 53.1025 68.8164Q55.6074 71.2334 55.6294 74.6172Q55.6074 76.9243 54.4209 78.814Q53.2563 80.6816 51.3887 81.8022Q49.521 82.9229 47.3237 82.9229Z" fill="rgb(255,255,255)" fill-rule="nonzero" />
</svg>
