<svg viewBox="0 0 24 24" xmlns="http://www.w3.org/2000/svg" xmlns:xlink="http://www.w3.org/1999/xlink" width="24.000000" height="24.000000" fill="none">
	<rect id="Размер2" width="24.000000" height="24.000000" x="0.000000" y="0.000000" fill="rgb(255,255,255)" fill-opacity="0" />
	<circle id="Эллипс 1" cx="12" cy="12" r="5" fill="rgb(255,255,255)" />
	<circle id="Эллипс 1" cx="12" cy="12" r="4.75" stroke="rgb(0,0,0)" stroke-width="0.500000" />
	<path id="Линия 1" d="M0 -1L5 -1L5 1L0 1L0 -1ZM0.02 0.98L0 1C-0.56 1 -1 0.56 -1 -0C-1 -0.56 -0.56 -1 0 -1L0.02 -0.98L0.02 0.98ZM4.98 -0.98L5 -1C5.56 -1 6 -0.56 6 0C6 0.56 5.56 1 5 1L4.98 0.98L4.98 -0.98Z" fill="rgb(0,0,0)" fill-rule="nonzero" transform="matrix(0,-1,1,0,12,6)" />
	<path id="Линия 2" d="M0 -1L5 -1L5 1L0 1L0 -1ZM0.02 0.98L0 1C-0.56 1 -1 0.56 -1 -0C-1 -0.56 -0.56 -1 0 -1L0.02 -0.98L0.02 0.98ZM4.98 -0.98L5 -1C5.56 -1 6 -0.56 6 0C6 0.56 5.56 1 5 1L4.98 0.98L4.98 -0.98Z" fill="rgb(0,0,0)" fill-rule="nonzero" transform="matrix(0,-1,1,0,12,23)" />
	<path id="Линия 3" d="M1 11L6 11L6 13L1 13L1 11ZM1.02 12.98L1 13C0.44 13 0 12.56 0 12C0 11.44 0.44 11 1 11L1.02 11.02L1.02 12.98ZM5.98 11.02L6 11C6.56 11 7 11.44 7 12C7 12.56 6.56 13 6 13L5.98 12.98L5.98 11.02Z" fill="rgb(0,0,0)" fill-rule="nonzero" />
	<path id="Линия 4" d="M18 11L23 11L23 13L18 13L18 11ZM18.02 12.98L18 13C17.44 13 17 12.56 17 12C17 11.44 17.44 11 18 11L18.02 11.02L18.02 12.98ZM22.98 11.02L23 11C23.56 11 24 11.44 24 12C24 12.56 23.56 13 23 13L22.98 12.98L22.98 11.02Z" fill="rgb(0,0,0)" fill-rule="nonzero" />
	<path id="Линия 5" d="M1.19209e-07 -1L2.5 -1L5 -1L5 1L2.5 1L-1.19209e-07 1L1.19209e-07 -1ZM0.0199999 0.98L-1.19209e-07 1C-0.56 1 -1 0.56 -1 -1.19209e-07C-1 -0.56 -0.56 -1 1.19209e-07 -1L0.0200001 -0.98L0.0199999 0.98ZM4.98 -0.98L5 -1C5.56 -1 6 -0.56 6 -1.19209e-07C6 0.56 5.56 1 5 1L4.98 0.98L4.98 -0.98Z" fill="rgb(0,0,0)" fill-rule="nonzero" transform="matrix(0.707107,-0.707107,0.707107,0.707107,16,7.53553)" />
	<path id="Линия 6" d="M0 -1L5 -1L5 1L0 1L0 -1ZM0.02 0.98L0 1C-0.56 1 -1 0.56 -1 -0C-1 -0.56 -0.56 -1 0 -1L0.02 -0.98L0.02 0.98ZM4.98 -0.98L5 -1C5.56 -1 6 -0.56 6 0C6 0.56 5.56 1 5 1L4.98 0.98L4.98 -0.98Z" fill="rgb(0,0,0)" fill-rule="nonzero" transform="matrix(-0.707107,-0.707107,0.707107,-0.707107,7.53553,7.53553)" />
	<path id="Линия 7" d="M0 -1L5 -1L5 1L0 1L0 -1ZM0.02 0.98L0 1C-0.56 1 -1 0.56 -1 -0C-1 -0.56 -0.56 -1 0 -1L0.02 -0.98L0.02 0.98ZM4.98 -0.98L5 -1C5.56 -1 6 -0.56 6 0C6 0.56 5.56 1 5 1L4.98 0.98L4.98 -0.98Z" fill="rgb(0,0,0)" fill-rule="nonzero" transform="matrix(-0.707107,-0.707107,0.707107,-0.707107,20.5355,20.5355)" />
	<path id="Линия 8" d="M0 -1L5 -1L5 1L0 1L0 -1ZM0.02 0.98L0 1C-0.56 1 -1 0.56 -1 -0C-1 -0.56 -0.56 -1 0 -1L0.02 -0.98L0.02 0.98ZM4.98 -0.98L5 -1C5.56 -1 6 -0.56 6 0C6 0.56 5.56 1 5 1L4.98 0.98L4.98 -0.98Z" fill="rgb(0,0,0)" fill-rule="nonzero" transform="matrix(0.707107,-0.707107,0.707107,0.707107,4,20.5355)" />
	<path id="Линия 9" d="M0 -0.5L5 -0.5L5 0.5L0 0.5L0 -0.5ZM0.02 0.48L0 0.5C-0.28 0.5 -0.5 0.28 -0.5 -0C-0.5 -0.28 -0.28 -0.5 0 -0.5L0.02 -0.48L0.02 0.48ZM4.98 -0.48L5 -0.5C5.28 -0.5 5.5 -0.28 5.5 0C5.5 0.28 5.28 0.5 5 0.5L4.98 0.48L4.98 -0.48Z" fill="rgb(255,255,255)" fill-rule="nonzero" transform="matrix(0,-1,1,0,12,6)" />
	<path id="Линия 10" d="M1 11.5L6 11.5L6 12.5L1 12.5L1 11.5ZM1.02 12.48L1 12.5C0.72 12.5 0.5 12.28 0.5 12C0.5 11.72 0.72 11.5 1 11.5L1.02 11.52L1.02 12.48ZM5.98 11.52L6 11.5C6.28 11.5 6.5 11.72 6.5 12C6.5 12.28 6.28 12.5 6 12.5L5.98 12.48L5.98 11.52Z" fill="rgb(255,255,255)" fill-rule="nonzero" />
	<path id="Линия 11" d="M18 11.5L23 11.5L23 12.5L18 12.5L18 11.5ZM18.02 12.48L18 12.5C17.72 12.5 17.5 12.28 17.5 12C17.5 11.72 17.72 11.5 18 11.5L18.02 11.52L18.02 12.48ZM22.98 11.52L23 11.5C23.28 11.5 23.5 11.72 23.5 12C23.5 12.28 23.28 12.5 23 12.5L22.98 12.48L22.98 11.52Z" fill="rgb(255,255,255)" fill-rule="nonzero" />
	<path id="Линия 12" d="M5.96046e-08 -0.5L2.5 -0.5L5 -0.5L5 0.5L2.5 0.5L-5.96046e-08 0.5L5.96046e-08 -0.5ZM0.0199999 0.48L-5.96046e-08 0.5C-0.28 0.5 -0.5 0.28 -0.5 -5.96046e-08C-0.5 -0.28 -0.28 -0.5 5.96046e-08 -0.5L0.0200001 -0.48L0.0199999 0.48ZM4.98 -0.48L5 -0.5C5.28 -0.5 5.5 -0.28 5.5 -5.96046e-08C5.5 0.28 5.28 0.5 5 0.5L4.98 0.48L4.98 -0.48Z" fill="rgb(255,255,255)" fill-rule="nonzero" transform="matrix(0.707107,-0.707107,0.707107,0.707107,16,7.53553)" />
	<path id="Линия 13" d="M0 -0.5L5 -0.5L5 0.5L0 0.5L0 -0.5ZM0.02 0.48L0 0.5C-0.28 0.5 -0.5 0.28 -0.5 -0C-0.5 -0.28 -0.28 -0.5 0 -0.5L0.02 -0.48L0.02 0.48ZM4.98 -0.48L5 -0.5C5.28 -0.5 5.5 -0.28 5.5 0C5.5 0.28 5.28 0.5 5 0.5L4.98 0.48L4.98 -0.48Z" fill="rgb(255,255,255)" fill-rule="nonzero" transform="matrix(0.707107,-0.707107,0.707107,0.707107,4,20.5355)" />
	<path id="Линия 14" d="M0 -0.5L5 -0.5L5 0.5L0 0.5L0 -0.5ZM0.02 0.48L0 0.5C-0.28 0.5 -0.5 0.28 -0.5 -0C-0.5 -0.28 -0.28 -0.5 0 -0.5L0.02 -0.48L0.02 0.48ZM4.98 -0.48L5 -0.5C5.28 -0.5 5.5 -0.28 5.5 0C5.5 0.28 5.28 0.5 5 0.5L4.98 0.48L4.98 -0.48Z" fill="rgb(255,255,255)" fill-rule="nonzero" transform="matrix(-0.707107,-0.707107,0.707107,-0.707107,7.53553,7.53553)" />
	<path id="Линия 15" d="M0 -0.5L5 -0.5L5 0.5L0 0.5L0 -0.5ZM0.02 0.48L0 0.5C-0.28 0.5 -0.5 0.28 -0.5 -0C-0.5 -0.28 -0.28 -0.5 0 -0.5L0.02 -0.48L0.02 0.48ZM4.98 -0.48L5 -0.5C5.28 -0.5 5.5 -0.28 5.5 0C5.5 0.28 5.28 0.5 5 0.5L4.98 0.48L4.98 -0.48Z" fill="rgb(255,255,255)" fill-rule="nonzero" transform="matrix(-0.707107,-0.707107,0.707107,-0.707107,20.5355,20.5355)" />
	<path id="Линия 16" d="M0 0L5 0" stroke="rgb(255,255,255)" stroke-linecap="round" stroke-width="1.000000" transform="matrix(0,-1,1,0,12,23)" />
</svg>
