<svg viewBox="0 0 100 100" xmlns="http://www.w3.org/2000/svg" xmlns:xlink="http://www.w3.org/1999/xlink" width="100.000000" height="100.000000" fill="none">
	<rect id="Размер1" width="100.000000" height="100.000000" x="0.000000" y="0.000000" fill="rgb(255,255,255)" fill-opacity="0" />
	<path id="Эллипс 1" d="M0 50C0 36.1929 5.59644 23.6929 14.6447 14.6447C23.6929 5.59644 36.1929 0 50 0C77.6142 0 100 22.3858 100 50C100 77.6142 77.6142 100 50 100C22.3858 100 0 77.6142 0 50Z" fill="rgb(0,71,113)" fill-rule="evenodd" />
	<path id="" d="M98.3398 48.1133L98.3398 51.1719C98.3398 57.2422 96.7344 63.5117 93.5234 69.9805C92.0703 72.8633 90.1777 75.5938 87.8457 78.1719C85.5137 80.75 83.6387 82.0391 82.2207 82.0391C80.8027 82.0391 80.0938 81.4062 80.0938 80.1406C80.0938 79.7422 80.6211 78.6992 81.6758 77.0117C82.7305 75.3242 83.7559 73.5605 84.752 71.7207C85.748 69.8809 86.7793 67.1445 87.8457 63.5117C88.9121 59.8789 89.4453 55.1152 89.4453 49.2207C89.4453 43.3262 88.5664 37.7422 86.8086 32.4688C86.1758 30.5703 84.9219 28.0156 83.0469 24.8047C81.1719 21.5938 80.2344 19.8008 80.2344 19.4258C80.2344 18.1367 80.9609 17.4922 82.4141 17.4922C83.8672 17.4922 85.7363 18.7168 88.0215 21.166C90.3066 23.6152 92.2402 26.4219 93.8223 29.5859C95.4043 32.75 96.5527 35.9902 97.2676 39.3066C97.9824 42.623 98.3398 45.5586 98.3398 48.1133Z" fill="rgb(255,255,255)" fill-rule="nonzero" />
	<path id="" d="M17.4609 17.4922C18.9844 17.4922 19.7461 18.2422 19.7461 19.7422C19.7461 20.0469 19.2422 20.9727 18.2344 22.5195C15.4219 26.9023 13.4473 31.2148 12.3105 35.457C11.1738 39.6992 10.6055 44.6797 10.6055 50.3984C10.6055 59.3281 12.4805 67.0039 16.2305 73.4258C18.6445 77.5742 19.8516 79.7422 19.8516 79.9297C19.8516 81.2891 19.1367 81.9688 17.707 81.9688C16.2773 81.9688 14.4141 80.7383 12.1172 78.2773C7.45312 73.3086 4.32422 67.1211 2.73047 59.7148C2.02734 56.4336 1.67578 53.1641 1.67578 49.9062L1.67578 49.168C1.67578 46.0039 2.07422 42.5938 2.87109 38.9375C4.41797 31.8828 7.53516 25.9297 12.2227 21.0781C14.543 18.6875 16.2891 17.4922 17.4609 17.4922Z" fill="rgb(255,255,255)" fill-rule="nonzero" />
	<path id="" d="M31.1711 80Q30.2373 78.9832 29.7185 77.5513Q29.1997 76.0986 29.1997 74.563Q32.105 74.563 33.2878 73.6292Q34.4707 72.6953 34.4707 70.3088L34.4707 30.3613Q34.4707 27.9749 33.2878 26.9995Q32.105 26.0242 29.1997 26.0242Q29.1997 24.4885 29.7185 23.0981Q30.2373 21.687 31.1711 20.6702L52.1514 20.6702Q54.0398 22.6208 54.0398 26.0242Q51.1345 26.0242 49.7649 27.041Q48.416 28.0579 48.416 30.3613L48.416 72.7783L51.5703 72.7783Q57.7751 72.7783 60.7842 68.7109Q63.814 64.6228 63.814 57.2144L69.749 57.2144Q71.2017 58.335 72.0525 61.9873Q72.9033 65.6396 72.9033 69.126Q72.9033 74.48 71.0356 77.24Q69.168 80 64.9138 80L31.1711 80Z" fill="rgb(255,255,255)" fill-rule="nonzero" />
</svg>
