<svg viewBox="0 0 24 24" xmlns="http://www.w3.org/2000/svg" xmlns:xlink="http://www.w3.org/1999/xlink" width="24.000000" height="24.000000" fill="none">
	<defs>
		<g id="pixso_custom_effect_8">
			<effect x="0.000000" y="4.000000" visibility="visible" fill="rgb(0,0,0)" fill-opacity="0.25" effectType="dropShadow" stdDeviation="4" radius="0" />
		</g>
		<filter id="filter_8" width="30.000000" height="32.000000" x="-3.000000" y="0.000000" filterUnits="userSpaceOnUse" customEffect="url(#pixso_custom_effect_8)" color-interpolation-filters="sRGB">
			<feFlood flood-opacity="0" result="BackgroundImageFix" />
			<feOffset dx="0.000000" dy="4.000000" in="SourceAlpha" />
			<feGaussianBlur stdDeviation="1.33333337" />
			<feColorMatrix type="matrix" values="0 0 0 0 0 0 0 0 0 0 0 0 0 0 0 0 0 0 0.25 0 " />
			<feBlend result="effect_dropShadow_1" in2="BackgroundImageFix" mode="normal" />
			<feBlend result="shape" in="SourceGraphic" in2="effect_dropShadow_1" mode="normal" />
		</filter>
	</defs>
	<rect id="Размер2" width="24.000000" height="24.000000" x="0.000000" y="0.000000" fill="rgb(255,255,255)" fill-opacity="0" />
	<g filter="url(#filter_8)">
		<path id="Прямоугольник 1" d="M2 0L14 1.56056e-06L14 4.45455C14 5.00684 14.4477 5.45455 15 5.45455L22.8 5.45455C22.9105 5.45455 23 5.54409 23 5.65455L23 23C23 23.5523 22.5523 24 22 24L2 24C1.44772 24 1 23.5523 1 23L1 1C1 0.447715 1.44772 0 2 0Z" fill="rgb(255,255,255)" fill-rule="evenodd" />
		<path id="Прямоугольник 1" d="M13 0L2 0C1.44772 0 1 0.447715 1 1L1 23C1 23.5523 1.44772 24 2 24L22 24C22.5523 24 23 23.5523 23 23L23 5.65455C23 5.54409 22.9105 5.45455 22.8 5.45455L15 5.45455C14.4477 5.45455 14 5.00684 14 4.45455L14 0L13 0ZM13 1L2 1L2 23L22 23L22 6.45455L15 6.45455Q14.5858 6.45455 14.2322 6.30811Q13.8787 6.16166 13.5858 5.86876Q13.2929 5.57587 13.1464 5.22232Q13 4.86876 13 4.45455L13 1Z" fill="rgb(0,0,0)" fill-rule="evenodd" />
	</g>
	<path id="Многоугольник 1" d="M14 0L23 5.5L18.5 5.5L15 5.5C14.4477 5.5 14 5.05228 14 4.5L14 0Z" fill="rgb(255,255,255)" fill-rule="evenodd" />
	<path id="Многоугольник 1" d="M22.1818 5L23 5.5L15 5.5C14.4477 5.5 14 5.05228 14 4.5L14 0L14.5 0.305556L22.1818 5ZM21.223 5L14.5 0.891528L14.5 4.5Q14.5 4.60355 14.5366 4.69194Q14.5732 4.78033 14.6464 4.85355Q14.7197 4.92678 14.8081 4.96339Q14.8964 5 15 5L21.223 5Z" fill="rgb(0,0,0)" fill-rule="evenodd" />
	<path id="Прямоугольник 2" d="M9.82727 8L13.1727 8C13.228 8 13.2727 8.04477 13.2727 8.1L13.2727 12.6273C13.2727 12.6825 13.3175 12.7273 13.3727 12.7273L17.9 12.7273C17.9552 12.7273 18 12.772 18 12.8273L18 16.1727C18 16.228 17.9552 16.2727 17.9 16.2727L13.3727 16.2727C13.3175 16.2727 13.2727 16.3175 13.2727 16.3727L13.2727 20.9C13.2727 20.9552 13.228 21 13.1727 21L9.82727 21C9.77204 21 9.72727 20.9552 9.72727 20.9L9.72727 16.3727C9.72727 16.3175 9.6825 16.2727 9.62727 16.2727L5.1 16.2727C5.04477 16.2727 5 16.228 5 16.1727L5 12.8273C5 12.772 5.04477 12.7273 5.1 12.7273L9.62727 12.7273C9.6825 12.7273 9.72727 12.6825 9.72727 12.6273L9.72727 8.1C9.72727 8.04477 9.77204 8 9.82727 8Z" fill="rgb(82,160,0)" fill-rule="evenodd" />
	<path id="Прямоугольник 2" d="M13.1727 8L9.82727 8C9.77204 8 9.72727 8.04477 9.72727 8.1L9.72727 12.6273C9.72727 12.6825 9.6825 12.7273 9.62727 12.7273L5.1 12.7273C5.04477 12.7273 5 12.772 5 12.8273L5 16.1727C5 16.228 5.04477 16.2727 5.1 16.2727L9.62727 16.2727C9.6825 16.2727 9.72727 16.3175 9.72727 16.3727L9.72727 20.9C9.72727 20.9552 9.77204 21 9.82727 21L13.1727 21C13.228 21 13.2727 20.9552 13.2727 20.9L13.2727 16.3727C13.2727 16.3175 13.3175 16.2727 13.3727 16.2727L17.9 16.2727C17.9552 16.2727 18 16.228 18 16.1727L18 12.8273C18 12.772 17.9552 12.7273 17.9 12.7273L13.3727 12.7273C13.3175 12.7273 13.2727 12.6825 13.2727 12.6273L13.2727 8.1C13.2727 8.04477 13.228 8 13.1727 8ZM10.1273 20.6L10.1273 16.3727Q10.1273 16.2692 10.0907 16.1808Q10.0541 16.0924 9.98083 16.0192Q9.90761 15.946 9.81922 15.9093Q9.73083 15.8727 9.62727 15.8727L5.4 15.8727L5.4 13.1273L9.62727 13.1273Q9.73083 13.1273 9.81921 13.0907Q9.9076 13.0541 9.98083 12.9808Q10.0541 12.9076 10.0907 12.8192Q10.1273 12.7308 10.1273 12.6273L10.1273 8.4L12.8727 8.4L12.8727 12.6273Q12.8727 12.7308 12.9093 12.8192Q12.946 12.9076 13.0192 12.9808Q13.0924 13.0541 13.1808 13.0907Q13.2692 13.1273 13.3727 13.1273L17.6 13.1273L17.6 15.8727L13.3727 15.8727Q13.2692 15.8727 13.1808 15.9093Q13.0924 15.946 13.0192 16.0192Q12.946 16.0924 12.9093 16.1808Q12.8727 16.2692 12.8727 16.3727L12.8727 20.6L10.1273 20.6Z" fill="rgb(0,0,0)" fill-rule="evenodd" />
</svg>
