<svg viewBox="0 0 24 24" xmlns="http://www.w3.org/2000/svg" xmlns:xlink="http://www.w3.org/1999/xlink" width="24.000000" height="24.000000" fill="none">
	<defs>
		<g id="pixso_custom_effect_9">
			<effect x="0.000000" y="4.000000" visibility="visible" fill="rgb(0,0,0)" fill-opacity="0.25" effectType="dropShadow" stdDeviation="4" radius="0" />
		</g>
		<filter id="filter_9" width="29.000000" height="32.000000" x="-3.000000" y="0.000000" filterUnits="userSpaceOnUse" customEffect="url(#pixso_custom_effect_9)" color-interpolation-filters="sRGB">
			<feFlood flood-opacity="0" result="BackgroundImageFix" />
			<feOffset dx="0.000000" dy="4.000000" in="SourceAlpha" />
			<feGaussianBlur stdDeviation="1.33333337" />
			<feColorMatrix type="matrix" values="0 0 0 0 0 0 0 0 0 0 0 0 0 0 0 0 0 0 0.25 0 " />
			<feBlend result="effect_dropShadow_1" in2="BackgroundImageFix" mode="normal" />
			<feBlend result="shape" in="SourceGraphic" in2="effect_dropShadow_1" mode="normal" />
		</filter>
	</defs>
	<rect id="Размер2" width="24.000000" height="24.000000" x="0.000000" y="0.000000" fill="rgb(255,255,255)" fill-opacity="0" />
	<g filter="url(#filter_9)">
		<path id="Прямоугольник 1" d="M2 0L13 3.39001e-07L13 4.45455C13 5.00684 13.4477 5.45455 14 5.45455L21.8 5.45455C21.9105 5.45455 22 5.54409 22 5.65455L22 23C22 23.5523 21.5523 24 21 24L2 24C1.44772 24 1 23.5523 1 23L1 1C1 0.447715 1.44772 0 2 0Z" fill="rgb(255,255,255)" fill-rule="evenodd" />
		<path id="Прямоугольник 1" d="M12 0L2 0C1.44772 0 1 0.447715 1 1L1 23C1 23.5523 1.44772 24 2 24L21 24C21.5523 24 22 23.5523 22 23L22 5.65455C22 5.54409 21.9105 5.45455 21.8 5.45455L14 5.45455C13.4477 5.45455 13 5.00684 13 4.45455L13 0L12 0ZM12 1L2 1L2 23L21 23L21 6.45455L14 6.45455Q13.5858 6.45455 13.2322 6.30811Q12.8787 6.16166 12.5858 5.86876Q12.2929 5.57587 12.1464 5.22232Q12 4.86876 12 4.45455L12 1Z" fill="rgb(0,0,0)" fill-rule="evenodd" />
	</g>
	<path id="Многоугольник 1" d="M13 0L22 5.5L16.5 5.5L14 5.5C13.4477 5.5 13 5.05228 13 4.5L13 0Z" fill="rgb(255,255,255)" fill-rule="evenodd" />
	<path id="Многоугольник 1" d="M21.1818 5L22 5.5L16.5 5.5L14 5.5C13.4477 5.5 13 5.05228 13 4.5L13 0L13.5 0.305556L21.1818 5ZM20.223 5L13.5 0.891528L13.5 4.5Q13.5 4.60355 13.5366 4.69194Q13.5732 4.78033 13.6464 4.85355Q13.7197 4.92678 13.8081 4.96339Q13.8964 5 14 5L16.5 5L20.223 5Z" fill="rgb(0,0,0)" fill-rule="evenodd" />
</svg>
