<svg viewBox="0 0 24 24" xmlns="http://www.w3.org/2000/svg" xmlns:xlink="http://www.w3.org/1999/xlink" width="24.000000" height="24.000000" fill="none">
	<defs>
		<linearGradient id="paint_linear_6" x1="3.50000095" x2="0.499998808" y1="7.99999952" y2="20.5" gradientUnits="userSpaceOnUse">
			<stop stop-color="rgb(247,181,1)" offset="0.265564442" stop-opacity="1" />
			<stop stop-color="rgb(0,0,0)" offset="1" stop-opacity="1" />
		</linearGradient>
	</defs>
	<rect id="Размер2" width="24.000000" height="24.000000" x="0.000000" y="0.000000" fill="rgb(255,255,255)" fill-opacity="0" />
	<path id="Прямоугольник 1" d="M1 2L5.5794 2C5.93107 2 6.25689 2.18472 6.43748 2.48648L7.39179 4.08109C7.57238 4.38285 7.8982 4.56757 8.24987 4.56757L11.2683 4.56757L16.9024 4.56757L20 4.56757C20.5523 4.56757 21 5.01528 21 5.56757L21 20C21 20.5523 20.5523 21 20 21L1 21C0.447715 21 0 20.5523 0 20L3.41546e-07 3C3.41546e-07 2.44772 0.447716 2 1 2Z" fill="url(#paint_linear_6)" fill-rule="evenodd" />
	<path id="Прямоугольник 1" d="M5.5794 2L1 2C0.447716 2 0 2.44772 0 3L0 20C0 20.5523 0.447715 21 1 21L20 21C20.5523 21 21 20.5523 21 20L21 5.56757C21 5.01528 20.5523 4.56757 20 4.56757L8.24987 4.56757C7.8982 4.56757 7.57238 4.38285 7.39179 4.08109L6.43748 2.48648C6.25689 2.18472 5.93107 2 5.5794 2ZM20.8 5.56757L20.8 20Q20.8 20.1657 20.7414 20.3071Q20.6828 20.4485 20.5657 20.5657Q20.4485 20.6828 20.3071 20.7414Q20.1657 20.8 20 20.8L1 20.8Q0.834307 20.8 0.69288 20.7414Q0.551466 20.6828 0.434315 20.5657Q0.31715 20.4485 0.258572 20.3071Q0.2 20.1657 0.2 20L0.2 3Q0.2 2.83431 0.258579 2.69289Q0.317158 2.55147 0.434315 2.43431Q0.551472 2.31716 0.692894 2.25858Q0.834315 2.2 1 2.2L5.5794 2.2Q5.80618 2.2 5.97779 2.2973Q6.14941 2.39459 6.26586 2.58918L7.22018 4.1838Q7.39486 4.47568 7.65228 4.62162Q7.9097 4.76757 8.24987 4.76757L20 4.76757Q20.1657 4.76757 20.3071 4.82614Q20.4485 4.88472 20.5657 5.00188Q20.6828 5.11903 20.7414 5.26045Q20.8 5.40187 20.8 5.56757Z" fill="rgb(0,0,0)" fill-rule="evenodd" />
	<path id="Прямоугольник 3" d="M2.65291 6L23 6L19.7873 20L10.1492 20L1 20L2.65291 6Z" fill="rgb(255,255,255)" fill-rule="evenodd" />
	<path id="Прямоугольник 3" d="M22.8974 6L2.65291 6L1 20L19.7873 20L22.9771 6.1L23 6L22.8974 6ZM22.8745 6.1L19.7076 19.9L1.1125 19.9L2.7418 6.1L22.8745 6.1Z" fill="rgb(0,0,0)" fill-rule="evenodd" />
	<path id="Прямоугольник 2" d="M3.91822 8L22.7306 8C23.3776 8 23.8543 8.6051 23.7028 9.23411L21.054 20.2341C20.9458 20.6834 20.5439 21 20.0818 21L1.26939 21C0.622392 21 0.145709 20.3949 0.297177 19.7659L2.94601 8.76589C3.05419 8.31663 3.45611 8 3.91822 8Z" fill="rgb(247,181,1)" fill-rule="evenodd" />
	<path id="Прямоугольник 2" d="M22.7306 8C23.3776 8 23.8543 8.6051 23.7028 9.23411L21.054 20.2341C20.9458 20.6834 20.5439 21 20.0818 21L1.26939 21C0.622392 21 0.145709 20.3949 0.297177 19.7659L2.94601 8.76589C3.05419 8.31663 3.45611 8 3.91822 8L22.7306 8Z" fill-rule="evenodd" stroke="rgb(0,0,0)" stroke-width="0.200000" />
</svg>
