<svg viewBox="0 0 100 100" xmlns="http://www.w3.org/2000/svg" xmlns:xlink="http://www.w3.org/1999/xlink" width="100.000000" height="100.000000" fill="none">
	<rect id="Размер1" width="100.000000" height="100.000000" x="0.000000" y="0.000000" fill="rgb(255,255,255)" fill-opacity="0" />
	<path id="Прямоугольник 3" d="M76 85L76 15C76 12.2386 73.7614 10 71 10L11 10C8.23858 10 6 12.2386 6 15L6 85C6 87.7614 8.23858 90 11 90L71 90C73.7614 90 76 87.7614 76 85Z" fill="rgb(191,121,53)" fill-rule="evenodd" />
	<path id="Прямоугольник 3" d="M76 85L76 15C76 12.2386 73.7614 10 71 10L11 10C8.23858 10 6 12.2386 6 15L6 85C6 87.7614 8.23858 90 11 90L71 90C73.7614 90 76 87.7614 76 85ZM73 15L73 85Q73 85.4142 72.8536 85.7677Q72.7071 86.1213 72.4142 86.4142Q72.1213 86.7071 71.7677 86.8536Q71.4142 87 71 87L11 87Q10.5858 87 10.2323 86.8536Q9.8787 86.7071 9.58579 86.4142Q9.29287 86.1213 9.14643 85.7677Q9 85.4142 9 85L9 15Q9 14.5858 9.14645 14.2322Q9.29289 13.8787 9.58579 13.5858Q9.87868 13.2929 10.2322 13.1464Q10.5858 13 11 13L71 13Q71.4142 13 71.7677 13.1464Q72.1213 13.2929 72.4142 13.5858Q72.7071 13.8787 72.8536 14.2323Q73 14.5858 73 15Z" fill="rgb(0,0,0)" fill-rule="evenodd" />
	<path id="Прямоугольник 4" d="M34 5.5L34.625 5.5C35.8053 5.5 36.9168 4.94427 37.625 4C39.125 2 42.125 2 43.625 4C44.3332 4.94427 45.4447 5.5 46.625 5.5L48 5.5C50.7614 5.5 53 7.73858 53 10.5L53 11.5C53 14.2614 50.7614 16.5 48 16.5L34 16.5C31.2386 16.5 29 14.2614 29 11.5L29 10.5C29 7.73858 31.2386 5.5 34 5.5Z" fill="rgb(255,255,255)" fill-rule="evenodd" />
	<path id="Прямоугольник 4" d="M34.625 5.5L34 5.5C31.2386 5.5 29 7.73858 29 10.5L29 11.5C29 14.2614 31.2386 16.5 34 16.5L48 16.5C50.7614 16.5 53 14.2614 53 11.5L53 10.5C53 7.73858 50.7614 5.5 48 5.5L46.625 5.5C45.4447 5.5 44.3332 4.94427 43.625 4C42.125 2 39.125 2 37.625 4C36.9168 4.94427 35.8053 5.5 34.625 5.5ZM51 10.5L51 11.5Q51 12.1213 50.7803 12.6517Q50.5607 13.182 50.1213 13.6213Q49.682 14.0607 49.1517 14.2803Q48.6213 14.5 48 14.5L34 14.5Q33.3787 14.5 32.8483 14.2803Q32.318 14.0607 31.8787 13.6213Q31.4393 13.182 31.2197 12.6517Q31 12.1213 31 11.5L31 10.5Q31 9.87868 31.2197 9.34835Q31.4393 8.81802 31.8787 8.37868Q32.318 7.93934 32.8483 7.71967Q33.3787 7.5 34 7.5L34.625 7.5Q35.3037 7.5 35.9466 7.34824Q36.5894 7.19648 37.1965 6.89296Q37.8035 6.58943 38.3107 6.16619Q38.8178 5.74295 39.225 5.2Q39.4875 4.85 39.8375 4.675Q40.1875 4.5 40.625 4.5Q41.0625 4.5 41.4125 4.675Q41.7625 4.85 42.025 5.2Q42.4322 5.74296 42.9393 6.1662Q43.4465 6.58944 44.0535 6.89296Q44.6606 7.19648 45.3034 7.34824Q45.9463 7.5 46.625 7.5L48 7.5Q48.6213 7.5 49.1517 7.71967Q49.682 7.93934 50.1213 8.37868Q50.5607 8.81802 50.7803 9.34835Q51 9.87868 51 10.5Z" fill="rgb(0,0,0)" fill-rule="evenodd" />
	<rect id="Прямоугольник 2" width="63.000000" height="72.000000" x="30.000000" y="26.000000" rx="5.000000" fill="rgb(255,255,255)" />
	<rect id="Прямоугольник 2" width="60.000000" height="69.000000" x="31.500000" y="27.500000" rx="3.500000" stroke="rgb(0,0,0)" stroke-width="3.000000" />
	<path id="Линия 1" d="M43 44L81 44" stroke="rgb(0,0,0)" stroke-linecap="round" stroke-width="6.000000" />
	<path id="Линия 2" d="M43 61L81 61" stroke="rgb(0,0,0)" stroke-linecap="round" stroke-width="6.000000" />
	<path id="Линия 4" d="M43 78L81 78" stroke="rgb(0,0,0)" stroke-linecap="round" stroke-width="6.000000" />
</svg>
