<svg viewBox="0 0 100 100" xmlns="http://www.w3.org/2000/svg" xmlns:xlink="http://www.w3.org/1999/xlink" width="100.000000" height="100.000000" fill="none">
	<rect id="Размер1" width="100.000000" height="100.000000" x="0.000000" y="0.000000" fill="rgb(255,255,255)" fill-opacity="0" />
	<path id="Вектор 1" d="M65.5826 91.1997C66.0095 89.1646 78.4176 29.6077 69.5714 26.0478C60.5714 22.426 51.4758 31.7865 43.0484 42.8304C34.621 53.8743 63.0408 58.6308 63.0408 58.6308L0 72.4203L0.73849 5.74629C0.73849 5.74629 12.6426 31.3286 21.4591 22.426C30.2756 13.5235 44.3442 1.64263 57.7692 0.211528C73.6622 -1.48266 87.4062 6.98827 92.5714 26.0478C97.7317 45.0893 75.9433 75.1011 65.6009 91.2072C65.5949 91.2165 65.5804 91.2106 65.5826 91.1997Z" fill="rgb(0,192,255)" fill-rule="evenodd" transform="matrix(-1,1.4638e-08,1.4638e-08,1,98.2788,3.74691)" />
	<path id="Многоугольник 1" d="M34.742 0L71 44.2179L23.0066 44.2179L0 44.2179L34.742 0Z" opacity="0" fill="rgb(0,113,189)" fill-rule="evenodd" transform="matrix(0.560409,0.828216,0.828216,-0.560409,-15,30.7801)" />
</svg>
