<svg viewBox="0 0 24 24" xmlns="http://www.w3.org/2000/svg" xmlns:xlink="http://www.w3.org/1999/xlink" width="24.000000" height="24.000000" fill="none">
	<rect id="Размер2" width="24.000000" height="24.000000" x="0.000000" y="0.000000" fill="rgb(255,255,255)" fill-opacity="0" />
	<path id="Прямоугольник 1" d="M0 24L24 24L24 4.33884C24 4.01252 23.8408 3.70673 23.5735 3.51961L21.2727 1.90909L18.8037 0.180768C18.6356 0.0631097 18.4354 0 18.2302 0L1 0C0.447715 0 0 0.447715 0 1L0 24Z" fill="rgb(0,36,63)" fill-rule="evenodd" />
	<path id="Прямоугольник 1" d="M1 24L0 24L0 1C0 0.447715 0.447715 0 1 0L18.2302 0C18.4354 0 18.6356 0.0631097 18.8037 0.180768L21.2727 1.90909L23.5735 3.51961C23.8408 3.70673 24 4.01252 24 4.33884L24 24L1 24ZM1 23L23 23L23 4.33884L20.6993 2.72832L18.2302 0.999999L1 1L1 23Z" fill="rgb(0,145,255)" fill-rule="evenodd" />
	<circle id="Эллипс 1" cx="11.5" cy="14.5" r="6.5" fill="rgb(0,84,148)" fill-opacity="0" />
	<circle id="Эллипс 1" cx="11.5" cy="14.5" r="5" stroke="rgb(0,145,255)" stroke-width="3.000000" />
	<path id="Линия 1" d="M0 15L5 15C5.55229 15 6 14.5523 6 14L6 1C6 0.447715 5.55228 0 5 0L0.5 1.71936e-08" stroke="rgb(0,145,255)" stroke-width="1.000000" transform="matrix(0,1,-1,0,19,0)" />
</svg>
