<svg viewBox="0 0 24 24" xmlns="http://www.w3.org/2000/svg" xmlns:xlink="http://www.w3.org/1999/xlink" width="24.000000" height="24.000000" fill="none">
	<rect id="Размер2" width="24.000000" height="24.000000" x="0.000000" y="0.000000" fill="rgb(255,255,255)" fill-opacity="0" />
	<path id="Прямоугольник 2" d="M2 4L6.68223 4C6.81343 4 6.94335 4.02582 7.06458 4.07598L19.3824 9.17299C19.7562 9.32769 20 9.69242 20 10.097L20 23L1 23L1 5C1 4.44772 1.44772 4 2 4Z" fill="rgb(0,36,63)" fill-rule="evenodd" />
	<path id="Прямоугольник 2" d="M0 24L21 24L21 10.097Q21 9.79356 20.9157 9.5157Q20.8314 9.23784 20.6627 8.98557Q20.4941 8.7333 20.2696 8.54915Q20.0451 8.365 19.7647 8.24898L7.44693 3.15197Q7.26331 3.07598 7.07213 3.03799Q6.88095 3 6.68223 3L2 3Q1.58579 3 1.23223 3.14645Q0.87868 3.29289 0.585786 3.58579Q0.292894 3.87868 0.146447 4.23223Q0 4.58579 0 5L0 24ZM6.68223 4L2 4C1.44772 4 1 4.44772 1 5L1 23L20 23L20 10.097C20 9.69242 19.7562 9.32769 19.3824 9.17299L7.06458 4.07598C6.94335 4.02582 6.81343 4 6.68223 4Z" fill="rgb(0,145,255)" fill-rule="evenodd" />
	<path id="Прямоугольник 1" d="M3 22L24 22L24 4.00674C24 3.68819 23.8482 3.38871 23.5914 3.20033L21.6136 1.75L19.4913 0.193595C19.3197 0.0678159 19.1126 0 18.8999 0L4 0C3.44772 0 3 0.447715 3 1L3 22Z" fill="rgb(0,36,63)" fill-rule="evenodd" />
	<path id="Прямоугольник 1" d="M4 22L3 22L3 1C3 0.447715 3.44772 0 4 0L18.8999 0C19.1126 0 19.3197 0.0678159 19.4913 0.193595L21.6136 1.75L23.5914 3.20033C23.8482 3.38871 24 3.68819 24 4.00674L24 22L4 22ZM4 21L23 21L23 4.00674L21.0223 2.55641L18.8999 0.999999L4 1L4 21Z" fill="rgb(0,145,255)" fill-rule="evenodd" />
	<circle id="Эллипс 1" cx="13" cy="13" r="6" fill="rgb(0,84,148)" fill-opacity="0" />
	<circle id="Эллипс 1" cx="13" cy="13" r="4.5" stroke="rgb(0,145,255)" stroke-width="3.000000" />
	<path id="Линия 1" d="M0 14L4 14C4.55229 14 5 13.5523 5 13L5 1C5 0.447715 4.55228 6.70552e-08 4 6.70552e-08L1 0" stroke="rgb(0,145,255)" stroke-width="1.000000" transform="matrix(0,1,-1,0,20,0)" />
</svg>
