<svg viewBox="0 0 100 100" xmlns="http://www.w3.org/2000/svg" xmlns:xlink="http://www.w3.org/1999/xlink" width="100.000000" height="100.000000" fill="none">
	<rect id="Размер1" width="100.000000" height="100.000000" x="0.000000" y="0.000000" fill="rgb(255,255,255)" fill-opacity="0" />
	<path id="Вектор 1" d="M70.5112 94.9466C70.938 92.9115 83.3462 33.3546 74.5 29.7948C65.5 26.1729 56.4044 35.5334 47.9769 46.5773C39.5495 57.6213 67.9693 62.3778 67.9693 62.3778L4.92857 76.1672L5.66706 9.4932C5.66706 9.4932 17.5711 35.0755 26.3877 26.1729C35.2042 17.2704 49.2728 5.38954 62.6978 3.95844C78.5908 2.26425 92.3348 10.7352 97.5 29.7948C102.66 48.8362 80.8719 78.848 70.5295 94.9541C70.5235 94.9634 70.5089 94.9575 70.5112 94.9466Z" fill="rgb(0,192,255)" fill-rule="evenodd" />
	<path id="Многоугольник 1" d="M34.742 0L71 44.2179L23.0066 44.2179L0 44.2179L34.742 0Z" opacity="0" fill="rgb(0,113,189)" fill-rule="evenodd" transform="matrix(0.560409,0.828216,0.828216,-0.560409,-15,30.7801)" />
</svg>
